<svg fill="white" height="21" viewBox="0 0 16 21" width="16" xmlns="http://www.w3.org/2000/svg">
    <path
        d="M2.5 20.1667C1.99583 20.1667 1.56439 19.9873 1.20567 19.6286C0.846333 19.2692 0.666667 18.8375 0.666667 18.3333V9.16667C0.666667 8.6625 0.846333 8.23075 1.20567 7.87142C1.56439 7.51269 1.99583 7.33333 2.5 7.33333H3.41667V5.5C3.41667 4.23194 3.86369 3.15089 4.75775 2.25683C5.65119 1.36339 6.73194 0.916667 8 0.916667C9.26806 0.916667 10.3491 1.36339 11.2432 2.25683C12.1366 3.15089 12.5833 4.23194 12.5833 5.5V7.33333H13.5C14.0042 7.33333 14.4359 7.51269 14.7953 7.87142C15.154 8.23075 15.3333 8.6625 15.3333 9.16667V18.3333C15.3333 18.8375 15.154 19.2692 14.7953 19.6286C14.4359 19.9873 14.0042 20.1667 13.5 20.1667H2.5ZM8 15.5833C8.50417 15.5833 8.93592 15.404 9.29525 15.0453C9.65397 14.6859 9.83333 14.2542 9.83333 13.75C9.83333 13.2458 9.65397 12.8141 9.29525 12.4547C8.93592 12.096 8.50417 11.9167 8 11.9167C7.49583 11.9167 7.06439 12.096 6.70567 12.4547C6.34633 12.8141 6.16667 13.2458 6.16667 13.75C6.16667 14.2542 6.34633 14.6859 6.70567 15.0453C7.06439 15.404 7.49583 15.5833 8 15.5833ZM5.25 7.33333H10.75V5.5C10.75 4.73611 10.4826 4.08681 9.94792 3.55208C9.41319 3.01736 8.76389 2.75 8 2.75C7.23611 2.75 6.58681 3.01736 6.05208 3.55208C5.51736 4.08681 5.25 4.73611 5.25 5.5V7.33333Z" />
</svg>