<svg fill="white" height="71" viewBox="0 0 276 71" width="276" xmlns="http://www.w3.org/2000/svg">
    <path
        d="M13.1353 35.6422V35.5014C13.1353 22.7942 23.1668 12.3596 37.0392 12.3596C50.9116 12.3596 60.7991 22.6535 60.7991 35.3578V35.4986C60.7991 48.2058 50.7676 58.6404 36.8952 58.6404C23.0228 58.6404 13.1353 48.3494 13.1353 35.6422ZM50.4855 35.6422V35.5014C50.4855 27.8363 44.8651 21.4468 36.8981 21.4468C28.9311 21.4468 23.4518 27.6927 23.4518 35.3607V35.5014C23.4518 43.1666 29.0722 49.5561 37.0392 49.5561C45.0062 49.5561 50.4855 43.3102 50.4855 35.6422Z" />
    <path
        d="M69.5493 13.141H79.4367V32.6601L97.6482 13.1381H109.528L91.2447 32.0912L110.311 57.859H98.4314L84.631 38.8341L79.4367 44.2296V57.9308H69.5493V13.141Z" />
    <path
        d="M116.289 13.141H134.572C145.243 13.141 151.718 19.4587 151.718 28.6149V28.7557C151.718 39.1185 143.679 44.4422 133.579 44.4422H126.11V57.859H116.223V13.141H116.294H116.289ZM134.002 35.714C138.911 35.714 141.828 32.8037 141.828 28.9711V28.8304C141.828 24.429 138.77 22.0875 133.861 22.0875H126.248V35.7887L134.002 35.7169V35.714Z" />
    <path
        d="M179.178 48.2058H157.267L155.7 41.2503L180.315 12.7848H188.639V40.1844H194.686V48.2058H188.639V57.859H179.25V48.2058H179.178ZM179.178 40.2562V26.3424L167.298 40.2562H179.178Z" />
    <path
        d="M30.2815 49.1998L14.2035 65.1707L7.23279 58.2152L59.7309 5.82928L66.7016 12.7848L43.722 35.714L30.2757 49.1998H30.2815Z" />
    <path
        d="M211.786 12.7848H232.759C237.921 12.7848 241.987 14.2011 244.57 16.7782C246.634 18.8381 247.668 21.3491 247.668 24.4405V24.5697C247.668 29.6578 244.958 32.4906 241.731 34.2919C246.957 36.2886 250.184 39.3139 250.184 45.3673V45.4965C250.184 53.7391 243.473 57.859 233.277 57.859H211.786V12.7848ZM237.795 26.1154C237.795 23.1534 235.471 21.4784 231.276 21.4784H221.466V31.0081H230.631C235.019 31.0081 237.795 29.5917 237.795 26.2418V26.1125V26.1154ZM232.955 39.2507H221.466V49.1682H233.277C237.665 49.1682 240.311 47.6225 240.311 44.2755V44.1462C240.311 41.121 238.054 39.2536 232.955 39.2536V39.2507Z" />
    <path d="M258.831 12.7848H268.77V57.8618H258.831V12.7848Z" />
</svg>