<svg fill="white" height="16" viewBox="0 0 16 16" width="16" xmlns="http://www.w3.org/2000/svg">
    <path
        d="M8 8C6.99167 8 6.12847 7.64097 5.41042 6.92291C4.69236 6.20486 4.33333 5.34166 4.33333 4.33333C4.33333 3.325 4.69236 2.4618 5.41042 1.74375C6.12847 1.02569 6.99167 0.666664 8 0.666664C9.00833 0.666664 9.87153 1.02569 10.5896 1.74375C11.3076 2.4618 11.6667 3.325 11.6667 4.33333C11.6667 5.34166 11.3076 6.20486 10.5896 6.92291C9.87153 7.64097 9.00833 8 8 8ZM2.5 15.3333C1.99583 15.3333 1.56439 15.154 1.20567 14.7952C0.846333 14.4359 0.666667 14.0042 0.666667 13.5V12.7667C0.666667 12.2472 0.8005 11.7696 1.06817 11.3339C1.33522 10.8988 1.69028 10.5667 2.13333 10.3375C3.08056 9.86389 4.04306 9.50853 5.02083 9.27141C5.99861 9.03491 6.99167 8.91666 8 8.91666C9.00833 8.91666 10.0014 9.03491 10.9792 9.27141C11.9569 9.50853 12.9194 9.86389 13.8667 10.3375C14.3097 10.5667 14.6648 10.8988 14.9318 11.3339C15.1995 11.7696 15.3333 12.2472 15.3333 12.7667V13.5C15.3333 14.0042 15.154 14.4359 14.7953 14.7952C14.4359 15.154 14.0042 15.3333 13.5 15.3333H2.5Z" />
</svg>